<svg width="1008" height="1178" viewBox="0 0 1008 1178" fill="none" xmlns="http://www.w3.org/2000/svg">
<g filter="url(#filter0_d_51_20)">
<path d="M591.464 286.157L737.331 214.41C755.119 205.515 759.863 182.39 746.225 168.159C693.452 110.05 640.086 61.4272 597.393 24.664C577.826 8.06131 548.771 21.6993 548.771 47.1963V259.474C548.771 281.413 571.896 295.644 591.464 286.157Z" fill="#2563EB"/>
</g>
<g filter="url(#filter1_d_51_20)">
<path d="M548.771 1017.29V1115.12C548.771 1132.91 564.781 1147.74 582.569 1144.77C744.446 1118.09 879.64 1009.57 943.679 863.706C954.945 838.802 927.669 813.904 902.765 825.763L565.374 991.191C555.293 995.935 548.771 1006.01 548.771 1017.29Z" fill="#2563EB"/>
</g>
<g filter="url(#filter2_d_51_20)">
<path d="M459.828 46.0104C459.828 20.5134 430.773 6.8754 411.206 22.8852C271.266 140.29 22.8183 387.552 24.0042 670.984C24.0042 909.351 198.333 1106.81 426.029 1144.75C443.818 1147.72 459.828 1132.9 459.828 1115.11V46.0104Z" fill="#2563EB"/>
</g>
<g filter="url(#filter3_d_51_20)">
<path d="M589.685 586.179L903.358 454.543C919.368 447.428 927.076 429.049 919.368 413.632C897.429 370.347 871.931 328.247 844.063 289.112C835.761 277.253 820.344 273.695 807.299 279.625L564.781 397.623C554.701 402.366 548.178 413.039 548.178 424.305V558.903C548.771 579.657 570.118 594.481 589.685 586.179Z" fill="#2563EB"/>
</g>
<g filter="url(#filter4_d_51_20)">
<path d="M968.583 695.301C978.07 690.557 984 681.663 984 671.582C984 633.633 979.256 596.277 970.955 559.514C966.804 541.725 947.237 532.238 930.634 539.354L566.56 694.708C555.886 699.451 548.771 710.124 548.771 721.984V852.434C548.771 874.373 571.896 888.604 591.464 879.117L941.307 708.939L968.583 695.301Z" fill="#2563EB"/>
</g>
<defs>
<filter id="filter0_d_51_20" x="524.771" y="1.38989" width="253.34" height="319.757" filterUnits="userSpaceOnUse" color-interpolation-filters="sRGB">
<feFlood flood-opacity="0" result="BackgroundImageFix"/>
<feColorMatrix in="SourceAlpha" type="matrix" values="0 0 0 0 0 0 0 0 0 0 0 0 0 0 0 0 0 0 127 0" result="hardAlpha"/>
<feOffset dy="8"/>
<feGaussianBlur stdDeviation="12"/>
<feComposite in2="hardAlpha" operator="out"/>
<feColorMatrix type="matrix" values="0 0 0 0 0 0 0 0 0 0 0 0 0 0 0 0 0 0 0.4 0"/>
<feBlend mode="soft-light" in2="BackgroundImageFix" result="effect1_dropShadow_51_20"/>
<feBlend mode="normal" in="SourceGraphic" in2="effect1_dropShadow_51_20" result="shape"/>
</filter>
<filter id="filter1_d_51_20" x="524.771" y="806.716" width="445.523" height="370.431" filterUnits="userSpaceOnUse" color-interpolation-filters="sRGB">
<feFlood flood-opacity="0" result="BackgroundImageFix"/>
<feColorMatrix in="SourceAlpha" type="matrix" values="0 0 0 0 0 0 0 0 0 0 0 0 0 0 0 0 0 0 127 0" result="hardAlpha"/>
<feOffset dy="8"/>
<feGaussianBlur stdDeviation="12"/>
<feComposite in2="hardAlpha" operator="out"/>
<feColorMatrix type="matrix" values="0 0 0 0 0 0 0 0 0 0 0 0 0 0 0 0 0 0 0.4 0"/>
<feBlend mode="soft-light" in2="BackgroundImageFix" result="effect1_dropShadow_51_20"/>
<feBlend mode="normal" in="SourceGraphic" in2="effect1_dropShadow_51_20" result="shape"/>
</filter>
<filter id="filter2_d_51_20" x="0" y="2.38419e-07" width="483.828" height="1177.13" filterUnits="userSpaceOnUse" color-interpolation-filters="sRGB">
<feFlood flood-opacity="0" result="BackgroundImageFix"/>
<feColorMatrix in="SourceAlpha" type="matrix" values="0 0 0 0 0 0 0 0 0 0 0 0 0 0 0 0 0 0 127 0" result="hardAlpha"/>
<feOffset dy="8"/>
<feGaussianBlur stdDeviation="12"/>
<feComposite in2="hardAlpha" operator="out"/>
<feColorMatrix type="matrix" values="0 0 0 0 0 0 0 0 0 0 0 0 0 0 0 0 0 0 0.4 0"/>
<feBlend mode="soft-light" in2="BackgroundImageFix" result="effect1_dropShadow_51_20"/>
<feBlend mode="normal" in="SourceGraphic" in2="effect1_dropShadow_51_20" result="shape"/>
</filter>
<filter id="filter3_d_51_20" x="524.178" y="260.808" width="422.203" height="359.717" filterUnits="userSpaceOnUse" color-interpolation-filters="sRGB">
<feFlood flood-opacity="0" result="BackgroundImageFix"/>
<feColorMatrix in="SourceAlpha" type="matrix" values="0 0 0 0 0 0 0 0 0 0 0 0 0 0 0 0 0 0 127 0" result="hardAlpha"/>
<feOffset dy="8"/>
<feGaussianBlur stdDeviation="12"/>
<feComposite in2="hardAlpha" operator="out"/>
<feColorMatrix type="matrix" values="0 0 0 0 0 0 0 0 0 0 0 0 0 0 0 0 0 0 0.4 0"/>
<feBlend mode="soft-light" in2="BackgroundImageFix" result="effect1_dropShadow_51_20"/>
<feBlend mode="normal" in="SourceGraphic" in2="effect1_dropShadow_51_20" result="shape"/>
</filter>
<filter id="filter4_d_51_20" x="524.771" y="520.977" width="483.229" height="393.129" filterUnits="userSpaceOnUse" color-interpolation-filters="sRGB">
<feFlood flood-opacity="0" result="BackgroundImageFix"/>
<feColorMatrix in="SourceAlpha" type="matrix" values="0 0 0 0 0 0 0 0 0 0 0 0 0 0 0 0 0 0 127 0" result="hardAlpha"/>
<feOffset dy="8"/>
<feGaussianBlur stdDeviation="12"/>
<feComposite in2="hardAlpha" operator="out"/>
<feColorMatrix type="matrix" values="0 0 0 0 0 0 0 0 0 0 0 0 0 0 0 0 0 0 0.4 0"/>
<feBlend mode="soft-light" in2="BackgroundImageFix" result="effect1_dropShadow_51_20"/>
<feBlend mode="normal" in="SourceGraphic" in2="effect1_dropShadow_51_20" result="shape"/>
</filter>
</defs>
</svg>
