<svg width="1813" height="441" viewBox="0 0 1813 441" fill="none" xmlns="http://www.w3.org/2000/svg">
<g filter="url(#filter0_d_54_51)">
<path d="M221.438 109.996L272.189 85.0325C278.378 81.9379 280.029 73.892 275.283 68.9406C256.922 48.7226 238.355 31.8055 223.501 19.0145C216.692 13.238 206.583 17.983 206.583 26.8542V100.712C206.583 108.345 214.629 113.297 221.438 109.996Z" fill="#2563EB"/>
</g>
<g filter="url(#filter1_d_54_51)">
<path d="M206.583 364.377V398.415C206.583 404.607 212.154 409.764 218.343 408.731C274.665 399.449 321.702 361.693 343.983 310.942C347.903 302.277 338.413 293.614 329.748 297.74L212.36 355.297C208.853 356.948 206.583 360.455 206.583 364.377Z" fill="#2563EB"/>
</g>
<g filter="url(#filter2_d_54_51)">
<path d="M175.637 26.4415C175.637 17.5703 165.528 12.8253 158.72 18.3956C110.031 59.2442 23.5889 145.274 24.0015 243.888C24.0015 326.823 84.6555 395.523 163.878 408.727C170.067 409.758 175.637 404.601 175.637 398.411V26.4415Z" fill="#2563EB"/>
</g>
<g filter="url(#filter3_d_54_51)">
<path d="M220.818 214.382L329.954 168.582C335.525 166.106 338.207 159.712 335.525 154.348C327.891 139.288 319.02 124.64 309.324 111.024C306.435 106.897 301.072 105.66 296.533 107.723L212.154 148.778C208.646 150.428 206.377 154.141 206.377 158.061V204.892C206.583 212.113 214.01 217.27 220.818 214.382Z" fill="#2563EB"/>
</g>
<g filter="url(#filter4_d_54_51)">
<path d="M352.648 252.349C355.949 250.698 358.012 247.604 358.012 244.096C358.012 230.893 356.362 217.896 353.474 205.105C352.029 198.915 345.221 195.614 339.445 198.09L212.773 252.142C209.059 253.793 206.583 257.506 206.583 261.632V307.02C206.583 314.653 214.629 319.605 221.438 316.304L343.158 257.094L352.648 252.349Z" fill="#2563EB"/>
</g>
<path d="M581.527 352.327C559.549 352.327 540.679 348.442 524.917 340.672C509.155 332.902 496.279 322.801 486.289 310.369C476.521 297.937 469.306 284.395 464.644 269.743C459.982 255.091 457.651 240.994 457.651 227.452V220.126C457.651 205.03 459.982 190.156 464.644 175.504C469.528 160.852 476.965 147.532 486.955 135.544C496.945 123.556 509.599 114.01 524.917 106.906C540.457 99.58 558.772 95.917 579.862 95.917C601.84 95.917 620.932 99.913 637.138 107.905C653.566 115.675 666.664 126.775 676.432 141.205C686.2 155.413 692.083 172.063 694.081 191.155H646.462C644.686 180.055 640.69 170.731 634.474 163.183C628.48 155.413 620.821 149.641 611.497 145.867C602.173 141.871 591.628 139.873 579.862 139.873C567.874 139.873 557.218 141.982 547.894 146.2C538.57 150.196 530.8 155.968 524.584 163.516C518.368 171.064 513.595 179.944 510.265 190.156C507.157 200.368 505.603 211.69 505.603 224.122C505.603 236.11 507.157 247.21 510.265 257.422C513.595 267.634 518.479 276.625 524.917 284.395C531.355 291.943 539.236 297.826 548.56 302.044C558.106 306.262 569.095 308.371 581.527 308.371C599.731 308.371 615.049 303.931 627.481 295.051C640.135 285.949 647.794 273.295 650.458 257.089H698.077C695.857 274.405 689.974 290.278 680.428 304.708C670.882 319.138 657.784 330.682 641.134 339.34C624.484 347.998 604.615 352.327 581.527 352.327ZM734.317 346V102.91H780.604V244.768H772.612C772.612 226.564 774.943 211.135 779.605 198.481C784.267 185.827 791.149 176.17 800.251 169.51C809.575 162.85 821.341 159.52 835.549 159.52H837.547C858.193 159.52 873.844 166.624 884.5 180.832C895.156 195.04 900.484 215.686 900.484 242.77V346H854.197V238.441C854.197 226.897 850.867 217.795 844.207 211.135C837.769 204.475 829.222 201.145 818.566 201.145C807.244 201.145 798.031 204.919 790.927 212.467C784.045 219.793 780.604 229.45 780.604 241.438V346H734.317ZM950.246 346V165.181H986.876V241.771H985.877C985.877 215.797 991.427 196.15 1002.53 182.83C1013.63 169.51 1029.94 162.85 1051.48 162.85H1058.14V203.143H1045.48C1029.94 203.143 1017.85 207.361 1009.19 215.797C1000.75 224.011 996.533 235.999 996.533 251.761V346H950.246ZM1097.76 346V165.181H1144.05V346H1097.76ZM1072.45 199.813V165.181H1144.05V199.813H1072.45ZM1114.75 143.536C1105.64 143.536 1098.87 141.205 1094.43 136.543C1090.21 131.659 1088.11 125.665 1088.11 118.561C1088.11 111.013 1090.21 104.908 1094.43 100.246C1098.87 95.584 1105.64 93.253 1114.75 93.253C1123.85 93.253 1130.51 95.584 1134.73 100.246C1138.94 104.908 1141.05 111.013 1141.05 118.561C1141.05 125.665 1138.94 131.659 1134.73 136.543C1130.51 141.205 1123.85 143.536 1114.75 143.536ZM1197.39 346V165.181H1234.02V242.77H1230.69C1230.69 224.566 1233.03 209.359 1237.69 197.149C1242.35 184.717 1249.23 175.393 1258.33 169.177C1267.66 162.739 1279.2 159.52 1292.97 159.52H1294.96C1308.95 159.52 1320.49 162.739 1329.6 169.177C1338.92 175.393 1345.8 184.717 1350.24 197.149C1354.9 209.359 1357.23 224.566 1357.23 242.77H1345.58C1345.58 224.566 1347.91 209.359 1352.57 197.149C1357.46 184.717 1364.45 175.393 1373.55 169.177C1382.88 162.739 1394.42 159.52 1408.18 159.52H1410.18C1424.17 159.52 1435.82 162.739 1445.15 169.177C1454.47 175.393 1461.46 184.717 1466.13 197.149C1471.01 209.359 1473.45 224.566 1473.45 242.77V346H1427.16V238.441C1427.16 227.119 1424.28 218.128 1418.51 211.468C1412.73 204.586 1404.52 201.145 1393.86 201.145C1383.21 201.145 1374.66 204.697 1368.22 211.801C1361.79 218.683 1358.57 228.007 1358.57 239.773V346H1312.28V238.441C1312.28 227.119 1309.39 218.128 1303.62 211.468C1297.85 204.586 1289.64 201.145 1278.98 201.145C1268.32 201.145 1259.78 204.697 1253.34 211.801C1246.9 218.683 1243.68 228.007 1243.68 239.773V346H1197.39ZM1632.47 346V292.387H1624.81V232.78C1624.81 222.346 1622.26 214.576 1617.15 209.47C1612.05 204.364 1604.17 201.811 1593.51 201.811C1587.96 201.811 1581.3 201.922 1573.53 202.144C1565.76 202.366 1557.88 202.699 1549.89 203.143C1542.12 203.365 1535.13 203.698 1528.91 204.142V164.848C1534.02 164.404 1539.79 163.96 1546.23 163.516C1552.66 163.072 1559.21 162.85 1565.87 162.85C1572.75 162.628 1579.19 162.517 1585.19 162.517C1603.83 162.517 1619.26 164.959 1631.47 169.843C1643.91 174.727 1653.23 182.386 1659.45 192.82C1665.88 203.254 1669.1 216.907 1669.1 233.779V346H1632.47ZM1574.2 350.662C1561.1 350.662 1549.56 348.331 1539.57 343.669C1529.8 339.007 1522.14 332.347 1516.59 323.689C1511.26 315.031 1508.6 304.597 1508.6 292.387C1508.6 279.067 1511.82 268.189 1518.25 259.753C1524.91 251.317 1534.13 244.99 1545.89 240.772C1557.88 236.554 1571.87 234.445 1587.85 234.445H1629.81V262.084H1587.18C1576.53 262.084 1568.31 264.748 1562.54 270.076C1556.99 275.182 1554.22 281.842 1554.22 290.056C1554.22 298.27 1556.99 304.93 1562.54 310.036C1568.31 315.142 1576.53 317.695 1587.18 317.695C1593.62 317.695 1599.51 316.585 1604.83 314.365C1610.38 311.923 1614.93 307.927 1618.49 302.377C1622.26 296.605 1624.37 288.835 1624.81 279.067L1636.14 292.054C1635.03 304.708 1631.92 315.364 1626.81 324.022C1621.93 332.68 1615.05 339.34 1606.17 344.002C1597.51 348.442 1586.85 350.662 1574.2 350.662Z" fill="#2563EB"/>
<defs>
<filter id="filter0_d_54_51" x="182.583" y="0.483643" width="119.444" height="142.552" filterUnits="userSpaceOnUse" color-interpolation-filters="sRGB">
<feFlood flood-opacity="0" result="BackgroundImageFix"/>
<feColorMatrix in="SourceAlpha" type="matrix" values="0 0 0 0 0 0 0 0 0 0 0 0 0 0 0 0 0 0 127 0" result="hardAlpha"/>
<feOffset dy="8"/>
<feGaussianBlur stdDeviation="12"/>
<feComposite in2="hardAlpha" operator="out"/>
<feColorMatrix type="matrix" values="0 0 0 0 0 0 0 0 0 0 0 0 0 0 0 0 0 0 0.4 0"/>
<feBlend mode="soft-light" in2="BackgroundImageFix" result="effect1_dropShadow_54_51"/>
<feBlend mode="normal" in="SourceGraphic" in2="effect1_dropShadow_54_51" result="shape"/>
</filter>
<filter id="filter1_d_54_51" x="182.583" y="280.68" width="186.31" height="160.183" filterUnits="userSpaceOnUse" color-interpolation-filters="sRGB">
<feFlood flood-opacity="0" result="BackgroundImageFix"/>
<feColorMatrix in="SourceAlpha" type="matrix" values="0 0 0 0 0 0 0 0 0 0 0 0 0 0 0 0 0 0 127 0" result="hardAlpha"/>
<feOffset dy="8"/>
<feGaussianBlur stdDeviation="12"/>
<feComposite in2="hardAlpha" operator="out"/>
<feColorMatrix type="matrix" values="0 0 0 0 0 0 0 0 0 0 0 0 0 0 0 0 0 0 0.4 0"/>
<feBlend mode="soft-light" in2="BackgroundImageFix" result="effect1_dropShadow_54_51"/>
<feBlend mode="normal" in="SourceGraphic" in2="effect1_dropShadow_54_51" result="shape"/>
</filter>
<filter id="filter2_d_54_51" x="0" y="0" width="199.637" height="440.859" filterUnits="userSpaceOnUse" color-interpolation-filters="sRGB">
<feFlood flood-opacity="0" result="BackgroundImageFix"/>
<feColorMatrix in="SourceAlpha" type="matrix" values="0 0 0 0 0 0 0 0 0 0 0 0 0 0 0 0 0 0 127 0" result="hardAlpha"/>
<feOffset dy="8"/>
<feGaussianBlur stdDeviation="12"/>
<feComposite in2="hardAlpha" operator="out"/>
<feColorMatrix type="matrix" values="0 0 0 0 0 0 0 0 0 0 0 0 0 0 0 0 0 0 0.4 0"/>
<feBlend mode="soft-light" in2="BackgroundImageFix" result="effect1_dropShadow_54_51"/>
<feBlend mode="normal" in="SourceGraphic" in2="effect1_dropShadow_54_51" result="shape"/>
</filter>
<filter id="filter3_d_54_51" x="182.377" y="90.7427" width="178.196" height="156.456" filterUnits="userSpaceOnUse" color-interpolation-filters="sRGB">
<feFlood flood-opacity="0" result="BackgroundImageFix"/>
<feColorMatrix in="SourceAlpha" type="matrix" values="0 0 0 0 0 0 0 0 0 0 0 0 0 0 0 0 0 0 127 0" result="hardAlpha"/>
<feOffset dy="8"/>
<feGaussianBlur stdDeviation="12"/>
<feComposite in2="hardAlpha" operator="out"/>
<feColorMatrix type="matrix" values="0 0 0 0 0 0 0 0 0 0 0 0 0 0 0 0 0 0 0.4 0"/>
<feBlend mode="soft-light" in2="BackgroundImageFix" result="effect1_dropShadow_54_51"/>
<feBlend mode="normal" in="SourceGraphic" in2="effect1_dropShadow_54_51" result="shape"/>
</filter>
<filter id="filter4_d_54_51" x="182.583" y="181.263" width="199.429" height="168.08" filterUnits="userSpaceOnUse" color-interpolation-filters="sRGB">
<feFlood flood-opacity="0" result="BackgroundImageFix"/>
<feColorMatrix in="SourceAlpha" type="matrix" values="0 0 0 0 0 0 0 0 0 0 0 0 0 0 0 0 0 0 127 0" result="hardAlpha"/>
<feOffset dy="8"/>
<feGaussianBlur stdDeviation="12"/>
<feComposite in2="hardAlpha" operator="out"/>
<feColorMatrix type="matrix" values="0 0 0 0 0 0 0 0 0 0 0 0 0 0 0 0 0 0 0.4 0"/>
<feBlend mode="soft-light" in2="BackgroundImageFix" result="effect1_dropShadow_54_51"/>
<feBlend mode="normal" in="SourceGraphic" in2="effect1_dropShadow_54_51" result="shape"/>
</filter>
</defs>
</svg>
